<svg id="Layer_1" enable-background="new 0 0 256 256" height="512" viewBox="0 0 256 256" width="512" xmlns="http://www.w3.org/2000/svg"><g><g><path d="m223.924 54.526 26.003-27.261-22.028.532v-21.91l-26.002 27.262v21.91z" fill="#f9d335"/><circle cx="114.97" cy="141.216" fill="#3193f3" r="108.896"/><circle cx="114.97" cy="141.216" fill="#5fcdff" r="86.927"/><circle cx="114.97" cy="141.216" fill="#3193f3" r="64.957"/><path d="m146.227 130.43-17.117-2.487c-1.281-.186-2.387-.991-2.96-2.151l-7.655-15.51c-1.442-2.922-5.609-2.922-7.051 0l-7.655 15.51c-.573 1.16-1.68 1.964-2.96 2.151l-17.117 2.487c-3.225.468-4.512 4.432-2.179 6.705l12.387 12.075c.927.903 1.349 2.205 1.131 3.48l-2.924 17.048c-.551 3.211 2.82 5.661 5.704 4.145l15.31-8.049c1.145-.602 2.514-.602 3.659 0l15.31 8.049c2.884 1.516 6.255-.933 5.704-4.145l-2.924-17.048c-.219-1.275.204-2.577 1.131-3.48l12.386-12.074c2.333-2.274 1.045-6.237-2.18-6.706z" fill="#f9d335"/><path d="m122.471 205.739c-2.46.28-4.96.43-7.5.43-35.88 0-64.96-29.08-64.96-64.95 0-35.88 29.08-64.96 64.96-64.96 2.54 0 5.04.15 7.5.43-32.35 3.72-57.46 31.19-57.46 64.53 0 33.33 25.11 60.8 57.46 64.52z" fill="#35b1fc"/><path d="m122.471 118.329-3.68 7.46c-.57 1.16-1.68 1.97-2.96 2.15l-17.12 2.49c-3.22.47-4.51 4.43-2.18 6.71l12.39 12.07c.93.9 1.35 2.21 1.13 3.48l-2.78 16.23-9.44 4.96c-2.88 1.52-6.26-.93-5.7-4.14l2.92-17.05c.22-1.27-.2-2.58-1.13-3.48l-12.39-12.07c-2.33-2.28-1.04-6.24 2.18-6.71l17.12-2.49c1.28-.18 2.39-.99 2.96-2.15l7.65-15.51c1.45-2.92 5.61-2.92 7.05 0z" fill="#f9e27d"/><path d="m122.471 249.849c-2.48.17-4.98.26-7.5.26-60.05 0-108.9-48.85-108.9-108.89 0-60.05 48.85-108.9 108.9-108.9 2.52 0 5.02.09 7.5.26-56.57 3.86-101.4 51.11-101.4 108.64 0 57.52 44.83 104.77 101.4 108.63z" fill="#35b1fc"/><path d="m122.471 227.819c-2.47.21-4.97.32-7.5.32-47.93 0-86.93-38.99-86.93-86.92s39-86.93 86.93-86.93c2.53 0 5.03.11 7.5.32-44.43 3.82-79.43 41.21-79.43 86.61s35 82.78 79.43 86.6z" fill="#73d7f9"/></g><g fill="#5f266d"><path d="m224.021 58.525c1.06-.026 2.066-.471 2.798-1.238l26.002-27.262c2.423-2.541.631-6.801-2.991-6.76l-17.931.434v-17.811c0-3.601-4.408-5.366-6.895-2.761l-26.002 27.262c-.709.744-1.105 1.732-1.105 2.761v20.297l-5.496 5.69c-71.544-67.529-190.327-16.896-190.327 82.079 0 62.251 50.645 112.896 112.896 112.896 98.158 0 149.354-117.251 83.053-189.282l5.614-5.813zm-18.124-23.774 18.002-18.874v11.92c0 2.204 1.78 4.023 4.097 3.999l12.366-.299-18.19 19.07-16.275.394zm-90.927 211.361c-57.84 0-104.896-47.056-104.896-104.896 0-91.756 110.118-139.128 176.771-76.328l-9.702 10.044c-57.882-54.325-153.1-13.106-153.1 66.284 0 50.137 40.79 90.927 90.927 90.927 78.45 0 119.92-93.183 67.764-151.484l9.726-10.069c61.145 67.028 13.497 175.522-77.49 175.522zm15.978-92.746 2.899 16.91-15.187-7.984c-2.311-1.215-5.07-1.215-7.381 0l-15.187 7.983 2.9-16.91c.442-2.575-.412-5.2-2.281-7.02l-12.285-11.977 16.98-2.468c2.583-.376 4.814-1.998 5.97-4.339l7.594-15.384 7.594 15.386c.412.834.965 1.571 1.618 2.199l-12.089 12.516c-1.535 1.589-1.491 4.121.098 5.656 1.588 1.534 4.12 1.492 5.656-.098l14.813-15.337 12.854 1.868-12.285 11.976c-1.87 1.824-2.723 4.448-2.281 7.023zm-1.214-29.35-7.651-15.504c-1.346-2.728-4.071-4.422-7.112-4.422s-5.767 1.694-7.112 4.421l-7.603 15.473-17.117 2.487c-6.503.944-9.101 8.944-4.396 13.528l12.366 12.013-2.924 17.047c-1.111 6.477 5.693 11.418 11.508 8.361l15.246-8.049 15.31 8.049c5.804 3.052 12.62-1.882 11.508-8.361l-2.944-16.986 12.385-12.073c2.178-2.123 2.947-5.238 2.008-8.13-.94-2.893-3.394-4.961-6.403-5.398l-7.306-1.049 22.343-23.132c32.89 39.536 4.675 99.882-46.87 99.882-33.612 0-60.957-27.345-60.957-60.957 0-53.104 63.485-80.654 102.312-44.731zm-83.721 17.2c0 38.023 30.934 68.957 68.957 68.957 58.743 0 90.463-69.114 52.446-113.655l9.736-10.08c47.072 53.371 9.015 137.705-62.182 137.705-45.726 0-82.927-37.201-82.927-82.927 0-72.305 86.67-109.997 139.534-60.521l-9.698 10.041c-43.832-40.76-115.866-9.728-115.866 50.48z"/><path d="m115.321 89.964c-1.134-.1-2.287-.15-3.439-.15-6.016.045-5.934 8.04.012 8 .907 0 1.825.04 2.728.12 5.301.458 5.943-7.51.699-7.97z"/><path d="m95.302 93.265c-10.775 4.488-17.611 11.802-17.896 12.111-1.5 1.622-1.4 4.153.223 5.652 1.621 1.498 4.151 1.401 5.652-.223.058-.063 5.918-6.332 15.098-10.156 2.039-.849 3.004-3.191 2.154-5.23-.851-2.039-3.192-3.003-5.231-2.154z"/></g></g></svg>