<svg id="Capa_1" enable-background="new 0 0 512 512" height="512" viewBox="0 0 512 512" width="512" xmlns="http://www.w3.org/2000/svg"><g><path d="m14.997 330c-2.124 0-4.26-.45-6.265-1.372-5.322-2.448-8.732-7.77-8.732-13.628v-270c0-24.813 20.187-45 45-45h240c24.813 0 45 20.187 45 45v180c0 24.813-20.187 45-45 45h-194.451l-65.787 56.389c-2.773 2.376-6.25 3.611-9.765 3.611z" fill="#f4f4f6"/><path d="m285 0h-120v270h120c24.813 0 45-20.187 45-45v-180c0-24.813-20.187-45-45-45z" fill="#e2dff4"/><path d="m124.999 210c-2.427 0-4.859-.588-7.077-1.775-4.877-2.61-7.922-7.693-7.922-13.225v-120c0-5.532 3.045-10.615 7.922-13.225 4.878-2.611 10.797-2.324 15.398.744l90 60c4.173 2.782 6.68 7.466 6.68 12.481s-2.506 9.699-6.68 12.481l-90 60c-2.509 1.673-5.411 2.519-8.321 2.519z" fill="#ff7038"/><path d="m223.32 122.519-58.32-38.88v102.722l58.32-38.88c4.173-2.782 6.68-7.466 6.68-12.481s-2.506-9.699-6.68-12.481z" fill="#ff1f3d"/><g><g><path d="m497.003 512c-3.515 0-6.992-1.234-9.765-3.611l-65.787-56.389h-194.451c-24.813 0-45-20.187-45-45v-180c0-24.813 20.187-45 45-45h240c24.813 0 45 20.187 45 45v270c0 5.858-3.41 11.18-8.732 13.628-2.004.921-4.142 1.372-6.265 1.372z" fill="#8bb9ff"/></g></g><path d="m467 182h-120v270h74.451l65.787 56.389c2.772 2.377 6.25 3.611 9.765 3.611 2.123 0 4.261-.451 6.265-1.372 5.322-2.448 8.732-7.77 8.732-13.628v-270c0-24.813-20.187-45-45-45z" fill="#7d81e7"/><path d="m347 398c-3.837 0-7.673-1.464-10.601-4.394l-64.871-64.907c-20.704-20.715-20.704-54.422 0-75.138s54.392-20.715 75.097 0c.126.126.251.253.376.38.124-.127.25-.253.376-.379 20.703-20.715 54.392-20.715 75.096 0 20.703 20.716 20.703 54.422 0 75.138l-64.871 64.907c-2.929 2.929-6.765 4.393-10.602 4.393z" fill="#ff7038"/><path d="m357.601 393.606 64.871-64.907c20.704-20.715 20.704-54.422 0-75.138-20.704-20.715-54.393-20.714-75.096 0-.126.126-.251.252-.376.379v144.06c3.837 0 7.674-1.464 10.601-4.394z" fill="#ff1f3d"/></g></svg>